<svg width="232" height="123" viewBox="0 0 232 123" fill="none" xmlns="http://www.w3.org/2000/svg">
<path d="M57.3793 123C55.908 123 54.5287 122.725 53.2414 122.176C51.954 121.627 50.7586 120.804 49.6552 119.705L3.03448 73.3058C1.01149 71.2924 0 68.6823 0 65.4755C0 62.2761 1.01149 59.6696 3.03448 57.6562C5.05747 55.6428 7.63218 54.6362 10.7586 54.6362C13.8851 54.6362 16.4598 55.6428 18.4828 57.6562L57.6552 96.6428L73.1034 112.018L65.1034 119.705C64 120.804 62.8046 121.627 61.5172 122.176C60.2299 122.725 58.8506 123 57.3793 123ZM119.724 122.725C118.253 122.725 116.874 122.495 115.586 122.034C114.299 121.58 113.103 120.804 112 119.705L65.1034 73.0312C63.0805 71.0179 62.069 68.4078 62.069 65.201C62.069 62.0015 63.0805 59.3951 65.1034 57.3817C67.1264 55.3683 69.7012 54.3616 72.8276 54.3616C75.954 54.3616 78.5287 55.3683 80.5517 57.3817L119.724 96.3683L213.517 3.02009C215.54 1.0067 218.115 0 221.241 0C224.368 0 226.943 1.0067 228.966 3.02009C230.989 5.03348 232 7.63991 232 10.8394C232 14.0462 230.989 16.6563 228.966 18.6696L127.448 119.705C126.345 120.804 125.149 121.58 123.862 122.034C122.575 122.495 121.195 122.725 119.724 122.725ZM119.724 65.3438L104 49.9687L150.897 3.29464C152.92 1.28125 155.538 0.274555 158.753 0.274555C161.975 0.274555 164.598 1.28125 166.621 3.29464C168.644 5.30803 169.655 7.87054 169.655 10.9821C169.655 14.0937 168.644 16.6563 166.621 18.6696L119.724 65.3438Z" fill="url(#paint0_linear_79_3229)"/>
<defs>
<linearGradient id="paint0_linear_79_3229" x1="9.55902" y1="61.7943" x2="157.43" y2="-37.991" gradientUnits="userSpaceOnUse">
<stop stop-color="#FFB200"/>
<stop offset="1" stop-color="#FFE404"/>
</linearGradient>
</defs>
</svg>
