<svg width="189" height="88" viewBox="0 0 189 88" fill="none" xmlns="http://www.w3.org/2000/svg">
<path d="M88.8684 16.4291H92.5433V28.3531H95.4755C96.0489 24.6 97.743 21.4984 100.558 19.0485C103.399 16.5725 106.709 15.3345 110.488 15.3345C114.684 15.3345 118.242 16.8201 121.161 19.7913C124.106 22.7365 125.579 26.3071 125.579 30.5033C125.579 34.6734 124.106 38.2441 121.161 41.2153C118.216 44.1866 114.658 45.6722 110.488 45.6722C106.578 45.6722 103.177 44.3299 100.284 41.6454C97.4172 38.9609 95.8273 35.6639 95.5146 31.7544H92.5433V44.5775H88.8684V16.4291ZM110.488 18.9703C107.334 18.9703 104.637 20.1041 102.395 22.3716C100.18 24.6391 99.0722 27.3497 99.0722 30.5033C99.0722 33.683 100.18 36.4067 102.395 38.6742C104.611 40.9156 107.308 42.0363 110.488 42.0363C113.668 42.0363 116.365 40.9156 118.581 38.6742C120.822 36.4067 121.943 33.683 121.943 30.5033C121.943 27.3497 120.822 24.6391 118.581 22.3716C116.339 20.1041 113.642 18.9703 110.488 18.9703Z" fill="white"/>
<path d="M133.013 36.2894V44.5775H129.338V16.4291C131.814 16.4291 133.808 16.5855 135.319 16.8983C137.639 17.3674 139.581 18.5012 141.144 20.2995C142.708 22.0979 143.49 24.1569 143.49 26.4765C143.49 29.2653 142.448 31.598 140.363 33.4745C138.278 35.3511 135.828 36.2894 133.013 36.2894ZM133.013 32.6535C134.785 32.6535 136.362 32.0671 137.743 30.8943C139.125 29.6954 139.815 28.2228 139.815 26.4765C139.815 24.7303 139.112 23.2577 137.704 22.0588C136.349 20.9381 134.785 20.3777 133.013 20.3777V32.6535Z" fill="white"/>
<path d="M149.899 45.594V42.1145C153.626 42.1145 155.79 41.2153 156.389 39.417C156.572 38.8696 156.663 37.8271 156.663 36.2894C153.874 36.2894 151.45 35.3511 149.391 33.4745C147.332 31.5719 146.303 29.2392 146.303 26.4765V16.4291H149.899V26.4765C149.899 28.2228 150.603 29.6954 152.01 30.8943C153.34 32.0671 154.89 32.6535 156.663 32.6535V16.4291H160.338V37.3449C160.338 40.4204 159.321 42.6228 157.288 43.952C155.62 45.0466 153.157 45.594 149.899 45.594Z" fill="white"/>
<path d="M189 41.9581C186.055 44.4342 182.758 45.6722 179.109 45.6722C174.965 45.6722 171.407 44.1866 168.436 41.2153C165.465 38.2181 163.979 34.6474 163.979 30.5033C163.979 26.3332 165.452 22.7625 168.397 19.7913C171.368 16.8201 174.939 15.3345 179.109 15.3345C182.784 15.3345 186.081 16.5985 189 19.1267V24.7173C187.958 22.9189 186.563 21.5115 184.817 20.495C183.097 19.4785 181.194 18.9703 179.109 18.9703C175.955 18.9703 173.258 20.1041 171.016 22.3716C168.775 24.6391 167.654 27.3497 167.654 30.5033C167.654 33.683 168.762 36.4067 170.977 38.6742C173.219 40.9156 175.929 42.0363 179.109 42.0363C181.142 42.0363 183.045 41.5281 184.817 40.5116C186.589 39.4691 187.984 38.0617 189 36.2894V41.9581Z" fill="white"/>
<path d="M97.9656 54.5482V52H92.0392C90.398 52 89 53.1467 89 54.5482V69.8371H92.0392V54.5482H97.9656Z" fill="white"/>
<path d="M102.516 69.8371V62.9061H105.403C107.045 62.9061 108.443 62.0142 108.443 60.9185V54.5482C108.443 53.1467 107.045 52 105.403 52H99.4769V69.8371H102.516ZM105.403 54.5482V60.9185H102.516V54.5482H105.403Z" fill="white"/>
<path d="M116.504 52V64.7153H113.616V52H110.577V64.7153C110.577 66.1168 111.975 67.2889 113.616 67.2889H116.504V69.8371H110.577V72.3852H116.504C118.175 72.3852 119.543 71.1876 119.543 69.8371V52H116.504Z" fill="white"/>
<path d="M127.901 69.8371H130.94V52H121.974V69.8371H125.013V54.5482H127.901V69.8371Z" fill="white"/>
<path d="M139.297 69.8371H142.337V52H133.371V69.8371H136.41V54.5482H139.297V69.8371Z" fill="white"/>
<mask id="path-3-inside-1_1_187" fill="white">
<path d="M41.1939 0C45.9468 0.334961 50.668 0.908455 55.3714 1.68496C60.7485 2.57311 66.0165 3.84951 71.1552 5.66135C71.4444 5.76285 71.7147 5.92272 72.0027 6.0293C76.0413 7.52647 76.0425 7.52521 76.0425 11.8518C76.0425 23.9878 75.9157 36.125 76.0882 48.2572C76.191 55.5693 73.0431 61.341 68.2839 66.4111C60.1471 75.0757 50.1884 81.1557 39.5445 86.2131C39.0369 86.4517 38.5853 86.7803 38.1069 87.067H37.7986C34.6863 85.391 31.5511 83.758 28.4654 82.0325C20.3451 77.4927 12.8415 72.1435 6.64214 65.1334C2.93853 60.9464 0.194136 56.1567 0.111664 50.5043C-0.0938803 36.5108 0.0532981 22.5122 0.022847 8.51613C0.022847 7.57976 0.360346 7.14837 1.20029 6.83752C7.56962 4.48137 14.1318 2.82687 20.8006 1.57838C25.4951 0.697836 30.2658 0.406014 35.0187 0.00126906L41.1939 0ZM72.1778 31.1983C72.1778 24.6653 72.1372 18.1298 72.2121 11.6006C72.2273 10.2734 71.7807 9.70499 70.5626 9.31674C62.5692 6.7652 54.4261 4.97874 46.0407 4.26187C31.9951 3.06286 18.3899 5.08024 5.07391 9.50071C4.22255 9.78239 3.88886 10.1909 3.89266 11.1501C3.9358 23.9649 3.92565 36.7671 3.94088 49.5755C3.92839 50.3962 3.97972 51.2166 4.0944 52.0294C4.9483 57.371 8.09617 61.4108 11.7427 65.0979C19.0623 72.5038 27.902 77.7059 37.1274 82.3395C37.6996 82.6275 38.2097 82.7557 38.853 82.4309C48.3372 77.6336 57.4585 72.2983 64.9178 64.5663C69.6834 59.618 72.7437 54.0264 72.2476 46.7791C71.8936 41.6088 72.1791 36.394 72.1778 31.1983Z"/>
<path d="M70.7085 31.8327C70.7085 37.3367 70.5487 42.8458 70.7568 48.341C70.9483 53.4047 69.0325 57.5372 65.9518 61.3068C60.2892 68.2331 52.9861 73.0786 45.367 77.5181C44.3519 78.1119 43.1859 78.5166 42.2812 79.2449C39.4341 81.5364 36.8648 81.0834 33.8171 79.3236C25.8237 74.7103 18.0042 69.9219 11.6678 63.0831C7.58358 58.6702 5.14623 53.7511 5.30356 47.4363C5.59031 35.8713 5.39872 24.2936 5.35685 12.7209C5.35685 11.678 5.62203 11.1628 6.64087 10.8317C27.5239 4.01573 48.3981 3.94468 69.2926 10.786C70.4345 11.159 70.7504 11.697 70.739 12.8592C70.6768 19.1791 70.7073 25.5065 70.7085 31.8327ZM22.535 57.5131C22.7989 56.7175 22.4817 56.2696 22.3155 55.7977C20.5849 50.876 20.4047 45.8592 21.4401 40.784C21.5961 40.0228 21.6367 38.5979 23.0387 39.9606C23.6909 40.595 23.847 39.9733 24.0373 39.4696C24.9165 37.161 26.1404 34.999 27.6673 33.0571C29.2419 31.0473 29.2355 31.0473 27.1204 29.8027C26.8667 29.6542 26.486 29.4499 26.4683 29.2431C26.429 28.8257 26.9098 28.7534 27.2118 28.5935C28.8612 27.7155 30.668 27.7053 32.4722 27.718C33.571 27.7294 34.8068 27.7345 35.4602 26.8235C36.1136 25.9125 36.6237 25.5141 37.5994 26.1371C38.4241 26.6637 39.3453 25.5573 40.2093 26.4061C40.9274 27.1115 41.9602 27.2308 42.9639 27.1496C45.2223 26.9694 47.4858 26.8959 49.7341 27.1966C50.9319 27.3552 51.1298 26.8857 50.9712 25.8275C50.1452 20.3514 44.1286 17.4687 39.41 20.3476C38.4216 20.9503 37.5981 21.1089 36.6186 20.3172C34.9692 18.9875 33.066 18.8048 31.0791 19.4417C28.7838 20.1789 26.5038 20.9642 24.2073 21.6938C23.8495 21.808 23.361 22.1658 23.0654 21.7306C21.704 19.7107 19.3859 19.0661 17.5005 17.8075C16.9232 17.4192 16.1936 17.2048 15.5034 17.0538C14.9489 16.927 14.5518 17.3685 14.2663 17.8151C14.0316 18.1793 14.2752 18.4127 14.5911 18.5015C16.8382 19.1359 17.6108 21.0784 18.6297 22.8712C19.0408 23.5957 18.9076 25.4811 20.7689 24.4369C21.0455 24.2821 21.1584 24.7034 21.1406 24.9444C21.1 25.5547 21.0823 26.179 20.9351 26.7677C20.0545 30.2759 18.3341 33.4593 16.9879 36.7912C15.5465 40.3552 15.0479 44.0093 15.6417 47.8043C15.7039 48.1989 15.7825 49.0591 16.2076 48.7888C18.0435 47.619 17.7491 49.4232 18.0029 50.0818C19.0522 52.7716 20.2144 55.3612 22.535 57.5131ZM53.4415 35.8066C52.3199 33.0799 50.4624 31.7312 48.2852 30.7479C47.9654 30.6033 47.3298 30.6489 47.1115 30.8748C45.2997 32.7348 43.9294 31.782 42.5934 30.2746C42.4284 30.0894 42.1734 29.9828 41.959 29.8445C37.1376 26.7753 31.0347 30.5665 30.7771 34.0531C30.5233 37.4788 30.7264 40.9325 30.767 44.3735C30.7758 45.0662 31.0207 45.6968 31.8898 45.7818C32.8795 45.8795 34.3691 45.2527 34.0937 47.2676C34.081 47.3538 34.397 47.5213 34.5809 47.5911C36.6973 48.4209 38.8441 48.7483 41.0302 47.8664C41.5276 47.666 42.2724 47.5112 42.0795 46.7778C41.8258 45.8034 42.3003 45.7171 43.0133 45.797C44.9521 46.014 45.5509 45.0561 45.4799 43.2455C45.353 40.2753 45.0472 37.3139 45.3441 34.3234C45.4786 32.9797 46.0521 32.8389 47.1115 33.0228C49.285 33.3984 51.112 34.5758 53.4415 35.8066ZM33.1282 63.2417C32.9493 63.0742 32.7729 62.9054 32.5915 62.7418C29.3002 59.7804 27.0164 56.0578 25.0244 52.1981C23.8711 49.9625 23.7049 47.3285 23.1897 44.8226C23.0283 45.8146 22.9696 46.8206 23.0146 47.8246C23.1352 51.7832 23.9358 55.5718 25.9227 59.0432C26.1118 59.3731 26.3325 60.3298 26.92 59.5507C27.6356 58.6055 27.9058 59.3731 28.2801 59.7309C29.7215 61.1164 31.0118 62.6809 33.1282 63.2417ZM58.6309 37.9661C57.64 41.4324 59.5622 45.0243 57.1807 48.8066C55.4437 51.5688 54.7852 55.1848 52.7729 58.0523C54.4642 56.8634 55.6505 55.3003 56.6224 53.5443C56.9218 53.0012 56.9942 51.8213 58.1361 52.868C58.5725 53.2677 58.669 52.6549 58.7705 52.3427C60.288 47.501 60.2359 42.6872 58.6284 37.9699L58.6309 37.9661ZM16.0578 28.629C16.1226 27.7231 16.2076 26.7411 15.6709 26.3135C14.3133 25.2299 14.4224 23.8647 14.4503 22.4208C14.4592 21.9488 14.8474 21.1355 13.9973 21.0619C13.2868 21.001 13.0356 21.7052 12.8795 22.3219C12.32 24.4877 13.8032 27.5074 16.0578 28.629ZM60.0634 28.5757C62.4106 27.6368 64.069 23.9104 63.0818 21.9273C62.8737 21.5111 62.6213 20.9909 62.1087 21.0721C61.3842 21.1876 61.8194 21.8131 61.7978 22.214C61.7306 23.427 62.0719 24.8328 61.067 25.7032C60.0849 26.5419 60.0964 27.4858 60.057 28.5757H60.0634ZM62.0262 18.5802C61.5885 17.2099 60.713 16.88 59.7106 17.201C57.4027 17.9433 55.7076 19.6739 53.7765 21.0581C56.8863 21.3056 58.6449 17.6413 62.0262 18.5802Z"/>
<path d="M38.0866 44.5511C36.7062 44.4382 35.3232 44.343 33.944 44.2047C33.25 44.1362 32.561 43.9129 32.5572 43.0628C32.5572 42.2432 33.2018 41.9919 33.8958 41.8207C37.0246 41.048 37.9775 38.5535 36.1187 35.969C35.6391 35.3029 35.0758 34.638 34.4591 35.8979C34.0582 36.715 33.6014 36.4435 33.1904 35.9093C32.3276 34.7852 32.3162 33.6255 33.2056 32.5255C35.431 29.7747 40.1573 29.6377 42.5642 32.2108C43.4676 33.1776 43.7454 34.2688 43.1986 35.4627C42.8179 36.29 42.2089 36.9396 41.3867 35.8611C40.8412 35.1468 40.5164 35.4805 40.1091 35.9639C38.06 38.4203 38.9151 41.1292 41.9856 41.8118C42.7964 41.9919 43.5843 42.2584 43.5818 43.1783C43.5818 44.0296 42.6936 44.0258 42.082 44.2161C40.7727 44.6234 39.4252 44.4204 38.0866 44.5511Z"/>
</mask>
<path d="M41.1939 0C45.9468 0.334961 50.668 0.908455 55.3714 1.68496C60.7485 2.57311 66.0165 3.84951 71.1552 5.66135C71.4444 5.76285 71.7147 5.92272 72.0027 6.0293C76.0413 7.52647 76.0425 7.52521 76.0425 11.8518C76.0425 23.9878 75.9157 36.125 76.0882 48.2572C76.191 55.5693 73.0431 61.341 68.2839 66.4111C60.1471 75.0757 50.1884 81.1557 39.5445 86.2131C39.0369 86.4517 38.5853 86.7803 38.1069 87.067H37.7986C34.6863 85.391 31.5511 83.758 28.4654 82.0325C20.3451 77.4927 12.8415 72.1435 6.64214 65.1334C2.93853 60.9464 0.194136 56.1567 0.111664 50.5043C-0.0938803 36.5108 0.0532981 22.5122 0.022847 8.51613C0.022847 7.57976 0.360346 7.14837 1.20029 6.83752C7.56962 4.48137 14.1318 2.82687 20.8006 1.57838C25.4951 0.697836 30.2658 0.406014 35.0187 0.00126906L41.1939 0ZM72.1778 31.1983C72.1778 24.6653 72.1372 18.1298 72.2121 11.6006C72.2273 10.2734 71.7807 9.70499 70.5626 9.31674C62.5692 6.7652 54.4261 4.97874 46.0407 4.26187C31.9951 3.06286 18.3899 5.08024 5.07391 9.50071C4.22255 9.78239 3.88886 10.1909 3.89266 11.1501C3.9358 23.9649 3.92565 36.7671 3.94088 49.5755C3.92839 50.3962 3.97972 51.2166 4.0944 52.0294C4.9483 57.371 8.09617 61.4108 11.7427 65.0979C19.0623 72.5038 27.902 77.7059 37.1274 82.3395C37.6996 82.6275 38.2097 82.7557 38.853 82.4309C48.3372 77.6336 57.4585 72.2983 64.9178 64.5663C69.6834 59.618 72.7437 54.0264 72.2476 46.7791C71.8936 41.6088 72.1791 36.394 72.1778 31.1983Z" fill="url(#paint0_linear_1_187)"/>
<path d="M70.7085 31.8327C70.7085 37.3367 70.5487 42.8458 70.7568 48.341C70.9483 53.4047 69.0325 57.5372 65.9518 61.3068C60.2892 68.2331 52.9861 73.0786 45.367 77.5181C44.3519 78.1119 43.1859 78.5166 42.2812 79.2449C39.4341 81.5364 36.8648 81.0834 33.8171 79.3236C25.8237 74.7103 18.0042 69.9219 11.6678 63.0831C7.58358 58.6702 5.14623 53.7511 5.30356 47.4363C5.59031 35.8713 5.39872 24.2936 5.35685 12.7209C5.35685 11.678 5.62203 11.1628 6.64087 10.8317C27.5239 4.01573 48.3981 3.94468 69.2926 10.786C70.4345 11.159 70.7504 11.697 70.739 12.8592C70.6768 19.1791 70.7073 25.5065 70.7085 31.8327ZM22.535 57.5131C22.7989 56.7175 22.4817 56.2696 22.3155 55.7977C20.5849 50.876 20.4047 45.8592 21.4401 40.784C21.5961 40.0228 21.6367 38.5979 23.0387 39.9606C23.6909 40.595 23.847 39.9733 24.0373 39.4696C24.9165 37.161 26.1404 34.999 27.6673 33.0571C29.2419 31.0473 29.2355 31.0473 27.1204 29.8027C26.8667 29.6542 26.486 29.4499 26.4683 29.2431C26.429 28.8257 26.9098 28.7534 27.2118 28.5935C28.8612 27.7155 30.668 27.7053 32.4722 27.718C33.571 27.7294 34.8068 27.7345 35.4602 26.8235C36.1136 25.9125 36.6237 25.5141 37.5994 26.1371C38.4241 26.6637 39.3453 25.5573 40.2093 26.4061C40.9274 27.1115 41.9602 27.2308 42.9639 27.1496C45.2223 26.9694 47.4858 26.8959 49.7341 27.1966C50.9319 27.3552 51.1298 26.8857 50.9712 25.8275C50.1452 20.3514 44.1286 17.4687 39.41 20.3476C38.4216 20.9503 37.5981 21.1089 36.6186 20.3172C34.9692 18.9875 33.066 18.8048 31.0791 19.4417C28.7838 20.1789 26.5038 20.9642 24.2073 21.6938C23.8495 21.808 23.361 22.1658 23.0654 21.7306C21.704 19.7107 19.3859 19.0661 17.5005 17.8075C16.9232 17.4192 16.1936 17.2048 15.5034 17.0538C14.9489 16.927 14.5518 17.3685 14.2663 17.8151C14.0316 18.1793 14.2752 18.4127 14.5911 18.5015C16.8382 19.1359 17.6108 21.0784 18.6297 22.8712C19.0408 23.5957 18.9076 25.4811 20.7689 24.4369C21.0455 24.2821 21.1584 24.7034 21.1406 24.9444C21.1 25.5547 21.0823 26.179 20.9351 26.7677C20.0545 30.2759 18.3341 33.4593 16.9879 36.7912C15.5465 40.3552 15.0479 44.0093 15.6417 47.8043C15.7039 48.1989 15.7825 49.0591 16.2076 48.7888C18.0435 47.619 17.7491 49.4232 18.0029 50.0818C19.0522 52.7716 20.2144 55.3612 22.535 57.5131ZM53.4415 35.8066C52.3199 33.0799 50.4624 31.7312 48.2852 30.7479C47.9654 30.6033 47.3298 30.6489 47.1115 30.8748C45.2997 32.7348 43.9294 31.782 42.5934 30.2746C42.4284 30.0894 42.1734 29.9828 41.959 29.8445C37.1376 26.7753 31.0347 30.5665 30.7771 34.0531C30.5233 37.4788 30.7264 40.9325 30.767 44.3735C30.7758 45.0662 31.0207 45.6968 31.8898 45.7818C32.8795 45.8795 34.3691 45.2527 34.0937 47.2676C34.081 47.3538 34.397 47.5213 34.5809 47.5911C36.6973 48.4209 38.8441 48.7483 41.0302 47.8664C41.5276 47.666 42.2724 47.5112 42.0795 46.7778C41.8258 45.8034 42.3003 45.7171 43.0133 45.797C44.9521 46.014 45.5509 45.0561 45.4799 43.2455C45.353 40.2753 45.0472 37.3139 45.3441 34.3234C45.4786 32.9797 46.0521 32.8389 47.1115 33.0228C49.285 33.3984 51.112 34.5758 53.4415 35.8066ZM33.1282 63.2417C32.9493 63.0742 32.7729 62.9054 32.5915 62.7418C29.3002 59.7804 27.0164 56.0578 25.0244 52.1981C23.8711 49.9625 23.7049 47.3285 23.1897 44.8226C23.0283 45.8146 22.9696 46.8206 23.0146 47.8246C23.1352 51.7832 23.9358 55.5718 25.9227 59.0432C26.1118 59.3731 26.3325 60.3298 26.92 59.5507C27.6356 58.6055 27.9058 59.3731 28.2801 59.7309C29.7215 61.1164 31.0118 62.6809 33.1282 63.2417ZM58.6309 37.9661C57.64 41.4324 59.5622 45.0243 57.1807 48.8066C55.4437 51.5688 54.7852 55.1848 52.7729 58.0523C54.4642 56.8634 55.6505 55.3003 56.6224 53.5443C56.9218 53.0012 56.9942 51.8213 58.1361 52.868C58.5725 53.2677 58.669 52.6549 58.7705 52.3427C60.288 47.501 60.2359 42.6872 58.6284 37.9699L58.6309 37.9661ZM16.0578 28.629C16.1226 27.7231 16.2076 26.7411 15.6709 26.3135C14.3133 25.2299 14.4224 23.8647 14.4503 22.4208C14.4592 21.9488 14.8474 21.1355 13.9973 21.0619C13.2868 21.001 13.0356 21.7052 12.8795 22.3219C12.32 24.4877 13.8032 27.5074 16.0578 28.629ZM60.0634 28.5757C62.4106 27.6368 64.069 23.9104 63.0818 21.9273C62.8737 21.5111 62.6213 20.9909 62.1087 21.0721C61.3842 21.1876 61.8194 21.8131 61.7978 22.214C61.7306 23.427 62.0719 24.8328 61.067 25.7032C60.0849 26.5419 60.0964 27.4858 60.057 28.5757H60.0634ZM62.0262 18.5802C61.5885 17.2099 60.713 16.88 59.7106 17.201C57.4027 17.9433 55.7076 19.6739 53.7765 21.0581C56.8863 21.3056 58.6449 17.6413 62.0262 18.5802Z" fill="url(#paint1_linear_1_187)"/>
<path d="M38.0866 44.5511C36.7062 44.4382 35.3232 44.343 33.944 44.2047C33.25 44.1362 32.561 43.9129 32.5572 43.0628C32.5572 42.2432 33.2018 41.9919 33.8958 41.8207C37.0246 41.048 37.9775 38.5535 36.1187 35.969C35.6391 35.3029 35.0758 34.638 34.4591 35.8979C34.0582 36.715 33.6014 36.4435 33.1904 35.9093C32.3276 34.7852 32.3162 33.6255 33.2056 32.5255C35.431 29.7747 40.1573 29.6377 42.5642 32.2108C43.4676 33.1776 43.7454 34.2688 43.1986 35.4627C42.8179 36.29 42.2089 36.9396 41.3867 35.8611C40.8412 35.1468 40.5164 35.4805 40.1091 35.9639C38.06 38.4203 38.9151 41.1292 41.9856 41.8118C42.7964 41.9919 43.5843 42.2584 43.5818 43.1783C43.5818 44.0296 42.6936 44.0258 42.082 44.2161C40.7727 44.6234 39.4252 44.4204 38.0866 44.5511Z" fill="url(#paint2_linear_1_187)"/>
<path d="M41.1939 0C45.9468 0.334961 50.668 0.908455 55.3714 1.68496C60.7485 2.57311 66.0165 3.84951 71.1552 5.66135C71.4444 5.76285 71.7147 5.92272 72.0027 6.0293C76.0413 7.52647 76.0425 7.52521 76.0425 11.8518C76.0425 23.9878 75.9157 36.125 76.0882 48.2572C76.191 55.5693 73.0431 61.341 68.2839 66.4111C60.1471 75.0757 50.1884 81.1557 39.5445 86.2131C39.0369 86.4517 38.5853 86.7803 38.1069 87.067H37.7986C34.6863 85.391 31.5511 83.758 28.4654 82.0325C20.3451 77.4927 12.8415 72.1435 6.64214 65.1334C2.93853 60.9464 0.194136 56.1567 0.111664 50.5043C-0.0938803 36.5108 0.0532981 22.5122 0.022847 8.51613C0.022847 7.57976 0.360346 7.14837 1.20029 6.83752C7.56962 4.48137 14.1318 2.82687 20.8006 1.57838C25.4951 0.697836 30.2658 0.406014 35.0187 0.00126906L41.1939 0ZM72.1778 31.1983C72.1778 24.6653 72.1372 18.1298 72.2121 11.6006C72.2273 10.2734 71.7807 9.70499 70.5626 9.31674C62.5692 6.7652 54.4261 4.97874 46.0407 4.26187C31.9951 3.06286 18.3899 5.08024 5.07391 9.50071C4.22255 9.78239 3.88886 10.1909 3.89266 11.1501C3.9358 23.9649 3.92565 36.7671 3.94088 49.5755C3.92839 50.3962 3.97972 51.2166 4.0944 52.0294C4.9483 57.371 8.09617 61.4108 11.7427 65.0979C19.0623 72.5038 27.902 77.7059 37.1274 82.3395C37.6996 82.6275 38.2097 82.7557 38.853 82.4309C48.3372 77.6336 57.4585 72.2983 64.9178 64.5663C69.6834 59.618 72.7437 54.0264 72.2476 46.7791C71.8936 41.6088 72.1791 36.394 72.1778 31.1983Z" stroke="white" stroke-width="3" mask="url(#path-3-inside-1_1_187)"/>
<path d="M70.7085 31.8327C70.7085 37.3367 70.5487 42.8458 70.7568 48.341C70.9483 53.4047 69.0325 57.5372 65.9518 61.3068C60.2892 68.2331 52.9861 73.0786 45.367 77.5181C44.3519 78.1119 43.1859 78.5166 42.2812 79.2449C39.4341 81.5364 36.8648 81.0834 33.8171 79.3236C25.8237 74.7103 18.0042 69.9219 11.6678 63.0831C7.58358 58.6702 5.14623 53.7511 5.30356 47.4363C5.59031 35.8713 5.39872 24.2936 5.35685 12.7209C5.35685 11.678 5.62203 11.1628 6.64087 10.8317C27.5239 4.01573 48.3981 3.94468 69.2926 10.786C70.4345 11.159 70.7504 11.697 70.739 12.8592C70.6768 19.1791 70.7073 25.5065 70.7085 31.8327ZM22.535 57.5131C22.7989 56.7175 22.4817 56.2696 22.3155 55.7977C20.5849 50.876 20.4047 45.8592 21.4401 40.784C21.5961 40.0228 21.6367 38.5979 23.0387 39.9606C23.6909 40.595 23.847 39.9733 24.0373 39.4696C24.9165 37.161 26.1404 34.999 27.6673 33.0571C29.2419 31.0473 29.2355 31.0473 27.1204 29.8027C26.8667 29.6542 26.486 29.4499 26.4683 29.2431C26.429 28.8257 26.9098 28.7534 27.2118 28.5935C28.8612 27.7155 30.668 27.7053 32.4722 27.718C33.571 27.7294 34.8068 27.7345 35.4602 26.8235C36.1136 25.9125 36.6237 25.5141 37.5994 26.1371C38.4241 26.6637 39.3453 25.5573 40.2093 26.4061C40.9274 27.1115 41.9602 27.2308 42.9639 27.1496C45.2223 26.9694 47.4858 26.8959 49.7341 27.1966C50.9319 27.3552 51.1298 26.8857 50.9712 25.8275C50.1452 20.3514 44.1286 17.4687 39.41 20.3476C38.4216 20.9503 37.5981 21.1089 36.6186 20.3172C34.9692 18.9875 33.066 18.8048 31.0791 19.4417C28.7838 20.1789 26.5038 20.9642 24.2073 21.6938C23.8495 21.808 23.361 22.1658 23.0654 21.7306C21.704 19.7107 19.3859 19.0661 17.5005 17.8075C16.9232 17.4192 16.1936 17.2048 15.5034 17.0538C14.9489 16.927 14.5518 17.3685 14.2663 17.8151C14.0316 18.1793 14.2752 18.4127 14.5911 18.5015C16.8382 19.1359 17.6108 21.0784 18.6297 22.8712C19.0408 23.5957 18.9076 25.4811 20.7689 24.4369C21.0455 24.2821 21.1584 24.7034 21.1406 24.9444C21.1 25.5547 21.0823 26.179 20.9351 26.7677C20.0545 30.2759 18.3341 33.4593 16.9879 36.7912C15.5465 40.3552 15.0479 44.0093 15.6417 47.8043C15.7039 48.1989 15.7825 49.0591 16.2076 48.7888C18.0435 47.619 17.7491 49.4232 18.0029 50.0818C19.0522 52.7716 20.2144 55.3612 22.535 57.5131ZM53.4415 35.8066C52.3199 33.0799 50.4624 31.7312 48.2852 30.7479C47.9654 30.6033 47.3298 30.6489 47.1115 30.8748C45.2997 32.7348 43.9294 31.782 42.5934 30.2746C42.4284 30.0894 42.1734 29.9828 41.959 29.8445C37.1376 26.7753 31.0347 30.5665 30.7771 34.0531C30.5233 37.4788 30.7264 40.9325 30.767 44.3735C30.7758 45.0662 31.0207 45.6968 31.8898 45.7818C32.8795 45.8795 34.3691 45.2527 34.0937 47.2676C34.081 47.3538 34.397 47.5213 34.5809 47.5911C36.6973 48.4209 38.8441 48.7483 41.0302 47.8664C41.5276 47.666 42.2724 47.5112 42.0795 46.7778C41.8258 45.8034 42.3003 45.7171 43.0133 45.797C44.9521 46.014 45.5509 45.0561 45.4799 43.2455C45.353 40.2753 45.0472 37.3139 45.3441 34.3234C45.4786 32.9797 46.0521 32.8389 47.1115 33.0228C49.285 33.3984 51.112 34.5758 53.4415 35.8066ZM33.1282 63.2417C32.9493 63.0742 32.7729 62.9054 32.5915 62.7418C29.3002 59.7804 27.0164 56.0578 25.0244 52.1981C23.8711 49.9625 23.7049 47.3285 23.1897 44.8226C23.0283 45.8146 22.9696 46.8206 23.0146 47.8246C23.1352 51.7832 23.9358 55.5718 25.9227 59.0432C26.1118 59.3731 26.3325 60.3298 26.92 59.5507C27.6356 58.6055 27.9058 59.3731 28.2801 59.7309C29.7215 61.1164 31.0118 62.6809 33.1282 63.2417ZM58.6309 37.9661C57.64 41.4324 59.5622 45.0243 57.1807 48.8066C55.4437 51.5688 54.7852 55.1848 52.7729 58.0523C54.4642 56.8634 55.6505 55.3003 56.6224 53.5443C56.9218 53.0012 56.9942 51.8213 58.1361 52.868C58.5725 53.2677 58.669 52.6549 58.7705 52.3427C60.288 47.501 60.2359 42.6872 58.6284 37.9699L58.6309 37.9661ZM16.0578 28.629C16.1226 27.7231 16.2076 26.7411 15.6709 26.3135C14.3133 25.2299 14.4224 23.8647 14.4503 22.4208C14.4592 21.9488 14.8474 21.1355 13.9973 21.0619C13.2868 21.001 13.0356 21.7052 12.8795 22.3219C12.32 24.4877 13.8032 27.5074 16.0578 28.629ZM60.0634 28.5757C62.4106 27.6368 64.069 23.9104 63.0818 21.9273C62.8737 21.5111 62.6213 20.9909 62.1087 21.0721C61.3842 21.1876 61.8194 21.8131 61.7978 22.214C61.7306 23.427 62.0719 24.8328 61.067 25.7032C60.0849 26.5419 60.0964 27.4858 60.057 28.5757H60.0634ZM62.0262 18.5802C61.5885 17.2099 60.713 16.88 59.7106 17.201C57.4027 17.9433 55.7076 19.6739 53.7765 21.0581C56.8863 21.3056 58.6449 17.6413 62.0262 18.5802Z" stroke="white" stroke-width="3" mask="url(#path-3-inside-1_1_187)"/>
<path d="M38.0866 44.5511C36.7062 44.4382 35.3232 44.343 33.944 44.2047C33.25 44.1362 32.561 43.9129 32.5572 43.0628C32.5572 42.2432 33.2018 41.9919 33.8958 41.8207C37.0246 41.048 37.9775 38.5535 36.1187 35.969C35.6391 35.3029 35.0758 34.638 34.4591 35.8979C34.0582 36.715 33.6014 36.4435 33.1904 35.9093C32.3276 34.7852 32.3162 33.6255 33.2056 32.5255C35.431 29.7747 40.1573 29.6377 42.5642 32.2108C43.4676 33.1776 43.7454 34.2688 43.1986 35.4627C42.8179 36.29 42.2089 36.9396 41.3867 35.8611C40.8412 35.1468 40.5164 35.4805 40.1091 35.9639C38.06 38.4203 38.9151 41.1292 41.9856 41.8118C42.7964 41.9919 43.5843 42.2584 43.5818 43.1783C43.5818 44.0296 42.6936 44.0258 42.082 44.2161C40.7727 44.6234 39.4252 44.4204 38.0866 44.5511Z" stroke="white" stroke-width="3" mask="url(#path-3-inside-1_1_187)"/>
<defs>
<linearGradient id="paint0_linear_1_187" x1="39.6449" y1="1.52908e-09" x2="43.6491" y2="87.0242" gradientUnits="userSpaceOnUse">
<stop stop-color="#044B2C"/>
<stop offset="1" stop-color="#0D8553"/>
</linearGradient>
<linearGradient id="paint1_linear_1_187" x1="39.6449" y1="1.52908e-09" x2="43.6491" y2="87.0242" gradientUnits="userSpaceOnUse">
<stop stop-color="#044B2C"/>
<stop offset="1" stop-color="#0D8553"/>
</linearGradient>
<linearGradient id="paint2_linear_1_187" x1="39.6449" y1="1.52908e-09" x2="43.6491" y2="87.0242" gradientUnits="userSpaceOnUse">
<stop stop-color="#044B2C"/>
<stop offset="1" stop-color="#0D8553"/>
</linearGradient>
</defs>
</svg>
